<svg xmlns="http://www.w3.org/2000/svg" width="12" height="19"><path fill="#1abc9c" d="M10.316 12.395c-1.027.644-2.441.902-3.375 1l.786.761 2.859 2.832c1.047 1.063-.656 2.719-1.715 1.696-.715-.72-1.766-1.758-2.86-2.84L3.149 18.68c-1.054 1.023-2.757-.653-1.699-1.696.727-.718 1.766-1.757 2.86-2.832l.773-.761c-.922-.098-2.36-.34-3.398-1C.46 11.613-.074 11.156.398 10.203c.278-.543 1.04-1 2.047-.215 0 0 1.36 1.075 3.559 1.075 2.2 0 3.559-1.075 3.559-1.075 1.007-.781 1.765-.328 2.046.215.465.953-.07 1.41-1.293 2.192zm-9.18-7.582C1.137 2.152 3.325 0 6 0c2.676 0 4.863 2.152 4.863 4.813 0 2.648-2.187 4.8-4.863 4.8-2.676 0-4.863-2.152-4.863-4.8zm2.473 0C3.61 6.117 4.684 7.175 6 7.175s2.39-1.059 2.39-2.364A2.385 2.385 0 006 2.438a2.385 2.385 0 00-2.39 2.376zm0 0" id="surface1"/></svg>