<svg xmlns="http://www.w3.org/2000/svg" width="20" height="27" viewBox="0 0 20 26"><path fill="#25bea0" d="M3.332 0C1.496 0 0 1.457 0 3.25v19.5C0 24.543 1.496 26 3.332 26h13.336C18.504 26 20 24.543 20 22.75V8.125h-6.668c-.922 0-1.664-.727-1.664-1.625V0zm10 0v6.5H20zm-10 11.375h1.25c1.61 0 2.918 1.273 2.918 2.844 0 1.57-1.309 2.844-2.918 2.844h-.414v1.625a.827.827 0 01-.836.812.826.826 0 01-.832-.813v-6.5c0-.445.375-.812.832-.812zm1.25 4.063c.695 0 1.25-.543 1.25-1.22 0-.675-.555-1.218-1.25-1.218h-.414v2.438zm3.75-3.25c0-.446.375-.813.836-.813h1.25c1.379 0 2.5 1.094 2.5 2.438v3.25c0 1.343-1.121 2.437-2.5 2.437h-1.25a.827.827 0 01-.836-.813zM10 17.875h.418a.826.826 0 00.832-.813v-3.25a.826.826 0 00-.832-.812H10zm5-6.5h2.5c.457 0 .832.367.832.813A.826.826 0 0117.5 13h-1.668v1.625H17.5c.457 0 .832.367.832.813a.826.826 0 01-.832.812h-1.668v2.438A.826.826 0 0115 19.5a.826.826 0 01-.832-.813v-6.5c0-.445.375-.812.832-.812zm0 0" id="surface1"/></svg>